#!OML:ASF F:\VICON\USERDATA\INSTALL\rory3\rory3.ASF
:FULLY-SPECIFIED
:DEGREES
351
root 4.52964 16.5264 -15.685 26.1044 5.74726 -5.57326
lowerback -17.3684 -1.73148 5.6461
upperback -9.78958 -3.18242 6.87771
thorax -0.693781 -1.63928 3.58264
lowerneck -3.90568 -2.5171 1.90647
upperneck 41.3812 -3.1254 -3.4269
head 14.9788 -1.48748 -2.20345
rclavicle 8.29926e-015 -2.06736e-014
rhumerus -82.9689 64.5378 -106.397
rradius 80.1882
rwrist 7.32347
rhand 29.4406 1.39249
rfingers 7.12502
rthumb 53.2033 -17.9703
lclavicle 8.29926e-015 -2.06736e-014
lhumerus -62.594 -19.0966 111.006
lradius 35.3161
lwrist 6.21241
lhand 3.862 16.0536
lfingers 7.12502
lthumb 29.2839 43.7682
rfemur -41.9373 3.31556 35.7649
rtibia 30.78
rfoot -25.7478 -29.6263
rtoes 20.4822
lfemur -21.7114 23.9306 -27.7036
ltibia 43.7815
lfoot 36.1645 32.271
ltoes 10.4635
352
root 4.52027 16.5231 -15.6932 26.194 5.20868 -5.62941
lowerback -17.9706 -1.72558 5.37742
upperback -9.58396 -3.21996 7.08275
thorax -0.130554 -1.63611 3.92024
lowerneck -3.71234 -2.49084 1.8404
upperneck 41.438 -2.99649 -3.64263
head 14.964 -1.46988 -2.26421
rclavicle 4.91247e-014 -4.13472e-014
rhumerus -80.6727 66.1474 -102.888
rradius 83.5169
rwrist 5.34168
rhand 32.8804 -0.486159
rfingers 7.12502
rthumb 56.2762 -17.6596
lclavicle 4.91247e-014 -4.13472e-014
lhumerus -62.4865 -19.4469 111.348
lradius 35.5373
lwrist 5.72751
lhand 4.30872 15.7097
lfingers 7.12502
lthumb 29.7104 43.349
rfemur -41.9937 3.56502 35.7493
rtibia 30.686
rfoot -25.2975 -29.5464
rtoes 19.9738
lfemur -21.8787 24.192 -27.9029
ltibia 43.8542
lfoot 34.1122 34.4278
ltoes 15.8664
353
root 4.51815 16.5163 -15.6994 26.3124 4.89974 -5.85589
lowerback -18.3593 -1.65202 5.51609
upperback -9.50144 -3.19519 7.2082
thorax 0.15584 -1.62189 3.96821
lowerneck -3.98225 -2.45878 2.18199
upperneck 41.8132 -2.87795 -4.04555
head 15.2055 -1.41224 -2.50584
rclavicle 1.6027e-014 -3.81667e-014
rhumerus -76.6791 67.1245 -97.8156
rradius 86.7529
rwrist 2.70187
rhand 35.9751 -2.34139
rfingers 7.12502
rthumb 58.9834 -17.1464
lclavicle 1.6027e-014 -3.81667e-014
lhumerus -62.5477 -19.8696 111.663
lradius 35.7572
lwrist 5.51429
lhand 4.5149 15.3106
lfingers 7.12502
lthumb 29.9072 42.9146
rfemur -41.9881 3.38199 36.104
rtibia 30.5616
rfoot -25.2014 -28.7912
rtoes 20.2546
lfemur -22.082 24.3037 -27.8806
ltibia 43.909
lfoot 37.0591 33.4035
ltoes 9.53776
354
root 4.51523 16.5056 -15.7037 26.3605 4.56603 -5.96105
lowerback -18.6084 -1.58328 5.58039
upperback -9.55156 -3.13837 7.26152
thorax 0.226135 -1.59385 3.9953
lowerneck -3.13001 -2.44654 2.07727
upperneck 41.6512 -2.83995 -4.00307
head 14.9317 -1.41005 -2.43401
rclavicle -2.16551e-014 1.43125e-014
rhumerus -71.716 67.5121 -91.8374
rradius 89.7739
rwrist -0.419162
rhand 39.1794 -3.60191
rfingers 7.12502
rthumb 61.7115 -15.4504
lclavicle -2.16551e-014 1.43125e-014
lhumerus -62.7033 -20.2399 111.982
lradius 35.8458
lwrist 5.5449
lhand 5.08136 15.1818
lfingers 7.12502
lthumb 30.4476 42.6871
rfemur -41.8491 3.18004 36.3353
rtibia 30.4588
rfoot -25.3662 -27.831
rtoes 20.9893
lfemur -22.2042 24.343 -27.934
ltibia 43.9538
lfoot 41.0531 30.4476
ltoes 0.989087
355
root 4.50496 16.5006 -15.713 26.2464 4.38264 -5.84386
lowerback -18.6546 -1.62641 5.42618
upperback -9.66743 -3.1646 7.23191
thorax 0.133244 -1.60448 4.04762
lowerneck -2.61282 -2.50531 2.21829
upperneck 41.8813 -2.89776 -4.15295
head 14.9225 -1.42983 -2.52631
rclavicle -5.35476e-014 5.88403e-014
rhumerus -66.2645 67.3727 -85.5757
rradius 92.6003
rwrist -4.09339
rhand 42.1458 -4.96573
rfingers 7.12502
rthumb 64.1483 -13.4997
lclavicle -5.35476e-014 5.88403e-014
lhumerus -62.9418 -20.4948 112.063
lradius 36.0505
lwrist 5.56007
lhand 6.01482 15.3518
lfingers 7.12502
lthumb 31.3374 42.6884
rfemur -41.6536 3.3414 36.1671
rtibia 30.4148
rfoot -25.8379 -27.4533
rtoes 21.8873
lfemur -22.115 24.1878 -28.0193
ltibia 43.9569
lfoot 36.0932 34.8432
ltoes 15.0779
356
root 4.49742 16.5039 -15.717 26.1726 4.29981 -5.7792
lowerback -18.6443 -1.59663 5.40492
upperback -9.86638 -3.10059 7.15455
thorax -0.0930883 -1.57648 3.9952
lowerneck -2.36884 -2.58818 2.42681
upperneck 42.3232 -3.03302 -4.23861
head 15.0826 -1.45919 -2.62984
rclavicle -3.81667e-014 3.02153e-014
rhumerus -60.7241 66.4592 -79.2561
rradius 95.3613
rwrist -8.29674
rhand 44.9918 -6.09806
rfingers 7.12502
rthumb 66.3806 -10.7946
lclavicle -3.81667e-014 3.02153e-014
lhumerus -63.3136 -20.6628 111.989
lradius 36.2733
lwrist 5.08667
lhand 7.09002 15.3227
lfingers 7.12502
lthumb 32.3614 42.4555
rfemur -41.6596 3.32178 36.1231
rtibia 30.4372
rfoot -25.6588 -27.5416
rtoes 20.7798
lfemur -21.9735 23.9291 -28.0158
ltibia 43.8781
lfoot 32.2397 39.6423
ltoes 22.9943
357
root 4.49422 16.5088 -15.7104 26.0775 4.12274 -5.92914
lowerback -18.8064 -1.50764 5.55485
upperback -9.81989 -3.02868 7.16964
thorax 0.0293889 -1.54341 3.93499
lowerneck -2.55667 -2.59646 2.62628
upperneck 42.6647 -3.07237 -4.29884
head 15.2969 -1.44598 -2.71813
rclavicle 1.99282e-014 -2.06736e-014
rhumerus -54.2391 65.1299 -72.2988
rradius 97.9419
rwrist -12.8692
rhand 47.0638 -6.50158
rfingers 7.12502
rthumb 67.9224 -7.91032
lclavicle 1.99282e-014 -2.06736e-014
lhumerus -63.3744 -21.126 112.134
lradius 36.2912
lwrist 4.82464
lhand 7.54246 14.8987
lfingers 7.12502
lthumb 32.7919 41.9426
rfemur -41.6783 3.06382 36.4084
rtibia 30.5055
rfoot -24.7829 -27.6748
rtoes 18.3049
lfemur -21.685 23.8444 -27.8075
ltibia 43.734
lfoot 26.1021 43.7008
ltoes 31.8174
358
root 4.48749 16.5105 -15.7025 25.8675 3.96676 -5.99169
lowerback -19.0299 -1.4996 5.50787
upperback -9.47779 -3.0672 7.2307
thorax 0.522966 -1.55245 4.00315
lowerneck -3.6284 -2.58979 2.7872
upperneck 43.2318 -3.11763 -4.35748
head 15.8451 -1.43495 -2.83934
rclavicle -6.4605e-016 2.54444e-014
rhumerus -46.7827 63.0616 -64.7579
rradius 100.331
rwrist -17.8515
rhand 47.8648 -6.5228
rfingers 7.12502
rthumb 68.4958 -6.53239
lclavicle -6.4605e-016 2.54444e-014
lhumerus -62.7209 -21.706 112.125
lradius 36.056
lwrist 4.82351
lhand 7.89909 14.4916
lfingers 7.12502
lthumb 33.1311 41.464
rfemur -41.4995 2.95911 36.5319
rtibia 30.5958
rfoot -24.3947 -27.6909
rtoes 17.3959
lfemur -21.2394 23.7271 -27.5894
ltibia 43.5242
lfoot 22.244 45.6098
ltoes 35.7513
359
root 4.47666 16.5101 -15.6976 25.6298 3.85624 -5.95569
lowerback -19.0898 -1.51094 5.39597
upperback -9.74356 -3.04331 7.18145
thorax 0.268255 -1.54148 4.02446
lowerneck -3.21873 -2.67396 3.00002
upperneck 43.8993 -3.26203 -4.44808
head 16.1012 -1.45959 -2.95874
rclavicle -2.16178e-014 1.43125e-014
rhumerus -43.3286 60.7246 -60.9628
rradius 102.812
rwrist -22.572
rhand 47.2432 -5.59431
rfingers 7.12502
rthumb 68.052 -6.69625
lclavicle -2.16178e-014 1.43125e-014
lhumerus -63.2445 -21.7105 112.278
lradius 35.9622
lwrist 4.77638
lhand 8.6629 14.4653
lfingers 7.12502
lthumb 33.8571 41.2807
rfemur -41.227 3.0688 36.4608
rtibia 30.6509
rfoot -24.6743 -27.5957
rtoes 17.981
lfemur -20.8579 23.5116 -27.4465
ltibia 43.3166
lfoot 22.6065 45.7536
ltoes 35.6744
